<?xml version="1.0" encoding="UTF-8"?>
<!DOCTYPE svg PUBLIC "-//W3C//DTD SVG 1.1//EN" "http://www.w3.org/Graphics/SVG/1.1/DTD/svg11.dtd">
<!-- Creator: CorelDRAW -->
<svg xmlns="http://www.w3.org/2000/svg" xml:space="preserve" width="5.90551in" height="5.90551in" version="1.1" style="shape-rendering:geometricPrecision; text-rendering:geometricPrecision; image-rendering:optimizeQuality; fill-rule:evenodd; clip-rule:evenodd"
viewBox="0 0 5905.51 5905.51"
 xmlns:xlink="http://www.w3.org/1999/xlink"
 xmlns:xodm="http://www.corel.com/coreldraw/odm/2003">
 <defs>
  <style type="text/css">
   <![CDATA[
    .fil0 {fill:white}
   ]]>
  </style>
 </defs>
 <g id="Layer_x0020_1">
  <metadata id="CorelCorpID_0Corel-Layer"/>
  <g id="_2543975133584">
   <path class="fil0" d="M3626.07 4399.34c25.73,6.86 121.01,90.07 171.43,119.8 256.2,151.08 418.97,225.61 736.13,225.61 164.04,0 300.47,-55.08 406.04,-115.48 123.16,-70.48 200.09,-128.47 300.03,-228.25 182.87,-182.56 316.63,-459.72 316.63,-739.93l0 -2377.26c0,-75.98 -86.18,-226.66 -135.31,-291.37 -21.61,-28.45 -46.72,-49.89 -72.85,-76.15 -21.81,-21.92 -52.41,-45.73 -78.09,-64.14 -94.47,-67.72 -209.08,-104.17 -325.63,-110.16l-69.36 0c-139.54,7.24 -276.7,57.93 -380.34,150.74 -83.2,74.51 -112.86,105.06 -173.29,212.77 -41.23,73.49 -65.72,157.04 -65.51,246.04 0.48,203.17 0.01,406.39 0.01,609.56 0,211.04 -6.78,399.37 -6.78,609.55 0,203.19 0,406.37 0,609.56 0,355.03 39.73,543.59 -116.39,804.71 -83.51,139.69 -179.18,217.17 -313.18,296.38 -19.33,11.42 -28.63,14.81 -47.35,27.16l-96.63 59.15c-23.04,12.66 -35.57,12.61 -49.56,31.72z"/>
   <path class="fil0" d="M2610.15 2875.44l8.02 67.56c-0.34,-1.26 0.63,-5.37 0.93,-4.42 0.15,0.46 28.33,-111.81 105.03,-172.65 156.27,-123.95 409.61,-91.06 493.52,64.15 49.91,92.31 39.33,176.3 -9.26,264.34 -78.76,142.69 -240.5,185.96 -408.81,174.14 -221.01,-15.52 -403.64,-169.45 -555.1,-263.87l-108.77 -67.95c-20.42,-11.69 -40.6,-23.93 -60.58,-34.24 -437.86,-226.09 -881.56,-359.26 -1399.37,-241.13 -146.29,33.37 -258.81,82.88 -327.74,98.94l0 13.54c236.3,0 416.13,26.07 620.31,84.06 19.54,5.55 35.37,11.76 51,16.73 228.38,72.62 467.2,191.95 640.98,354.63 17.33,16.21 19.23,19.5 39.42,35.09 52.23,40.33 96.86,94.54 143.39,141.06l101.72 108.23c16.64,16.79 19.15,24.15 33.79,40.72 11.85,13.42 21.79,20.24 33.5,34.22l132.31 152.15c122.33,137.65 238.51,288.32 392.49,393.16 361.69,246.24 599.15,173.22 647.32,206.06l76.08 66.15c-241.42,0 -438.26,-34.01 -641.09,-144.55 -181.39,-98.85 -229.71,-179.44 -331.33,-257.9 -38.72,-29.9 -61.12,-65.78 -95.98,-100.44l-365.44 -420.21c-18.4,-21.98 -23.53,-29.92 -44.31,-50.51l-179.15 -166.25c-10.48,-8.86 -13.93,-14.16 -24.37,-23.05 -53.85,-45.81 -111.92,-97.82 -174.07,-130.7 0,48.69 -9.89,332.5 7.63,364.88l53.11 75.57c31.3,54.1 51.98,110.26 64.31,186.28 16.03,98.71 -13.78,116.11 37.39,219.98 179.57,364.54 435.09,659.54 770.87,874.93 28.12,18.04 49.96,31.02 79.65,49.04 109.65,66.53 227.26,115.63 347.34,160.62 60.37,22.61 129.74,43.06 197.43,59.94 204.16,50.92 377.05,60.94 596.02,60.94 267.93,0 500.68,-64.62 732.39,-148.07l105.21 -43.8c30.82,-14.44 78.18,-26.2 97.04,-51.96 -59.03,0 -146.21,-17.65 -201.52,-28.76 -189.77,-38.08 -437.8,-110.73 -607.3,-212.21 -26.93,-16.12 -47.39,-24.01 -74.59,-40.53 -97.43,-59.14 -188.12,-120.32 -275.69,-191.63 -33.92,-27.62 -98.31,-82.3 -120.95,-116.1 185.6,0 360.41,-50.43 505.83,-137.59l126.14 -90.59c165.93,-139.52 289.14,-345.66 289.14,-577.79 0,-133.86 -16.26,-238.88 -62.75,-357.17l-18.53 -35.65c0,228.12 -76.77,404.78 -225.2,553.68 -172.25,172.8 -495.25,320.53 -761.46,195.93 -52.29,-24.47 -132.08,-64.21 -164.72,-112.97 37.48,0 70.07,7.16 94.43,6.46l94.85 -6.81c250.28,-18.54 514.8,-155.96 634.8,-381.12 104.08,-195.28 119.94,-400.1 38.1,-609.39 -35.28,-90.21 -91.54,-179.43 -159.24,-247.13 -16.85,-16.86 -26.61,-21.22 -44.22,-37.05 -80.54,-72.37 -229.76,-140.47 -347.17,-140.47 -129.93,0 -209.13,-4.25 -329.7,56.34 -134.96,67.82 -230.69,201.48 -260.32,349.24 -3.54,17.69 -15.65,94.91 -12.76,115.92z"/>
   <path class="fil0" d="M1404.59 2604.54c238.24,55.5 310.43,63.78 539.57,178.35 154.48,77.24 318.34,168.56 458.8,265.89 92.01,63.76 202.72,139.03 315.55,165.31 0,-132.24 -6.77,-245.77 -6.77,-372.5 -59.22,39.65 -71.8,133.94 -101.59,155.77 -0.62,-27.58 -8.42,-44.55 -12.76,-68.52 -25.36,-139.89 6.14,-255.99 71.57,-373.86 9,-16.21 42.78,-59.4 42.78,-72.35 0,-264.07 7.4,-536.09 -6.81,-799.16l0.13 -386.18c0.41,-58.56 -5.48,-71.39 -21.38,-114.08 -89.89,-241.44 -332.27,-441.2 -601.81,-441.2 -194.92,0 -352.3,50.45 -485.96,184.56 -60.72,60.92 -93.83,93.94 -134.9,176.65 -57.7,116.17 -56.43,127.17 -56.43,255.12 0,415.4 0,830.8 0,1246.2z"/>
   <path class="fil0" d="M1174.31 3586.59c0,126.17 -29.54,203.25 -100.66,292.17 -85.11,106.43 -168.71,147.8 -183.8,168.39 172.34,40.15 438.76,68.55 559.49,-90.7 112.59,-148.53 -14.72,-384.03 -104.7,-513.09 -148.59,-213.1 -321.77,-329.84 -571.83,-430.55 -71.02,-28.61 -319.38,-103.49 -397.7,-103.49 24.81,17.24 98.45,25.93 143.12,39.75 135.28,41.87 263.16,99.01 373.62,181.76 65.87,49.33 136.81,115.04 182.31,183.42 44.83,67.39 100.15,164.1 100.15,272.35z"/>
  </g>
 </g>
</svg>
